HIERARCHY
ROOT Hips
{
	OFFSET 0.000000 0.000000 0.000000
	CHANNELS 6 Xposition Yposition Zposition Zrotation Yrotation Xrotation 
	JOINT LeftUpLeg_virtual
	{
		OFFSET 0.000000 0.000000 0.000000
		CHANNELS 3 Zrotation Yrotation Xrotation
		JOINT LeftUpLeg
		{
			OFFSET 8.479694 -4.795517 -0.379053
			CHANNELS 3 Zrotation Yrotation Xrotation
			JOINT LeftLeg
			{
				OFFSET 0.485052 -32.551468 0.112863
				CHANNELS 3 Zrotation Yrotation Xrotation
				JOINT LeftFoot
				{
					OFFSET 0.438033 -32.635670 -3.012641
					CHANNELS 3 Zrotation Yrotation Xrotation
					JOINT LeftToeBase
					{
						OFFSET 0.970169 -13.225353 11.864223
						CHANNELS 3 Zrotation Yrotation Xrotation
						End Site
						{
							OFFSET 0.000000 0.000000 0.000000
						}
					}
				}
			}
		}
	}
	JOINT RightUpLeg_virtual
	{
		OFFSET 0.000000 0.000000 0.000000
		CHANNELS 3 Zrotation Yrotation Xrotation
		JOINT RightUpLeg
		{
			OFFSET -8.479694 -4.795517 -0.379053
			CHANNELS 3 Zrotation Yrotation Xrotation
			JOINT RightLeg
			{
				OFFSET -0.484100 -32.551483 0.112903
				CHANNELS 3 Zrotation Yrotation Xrotation
				JOINT RightFoot
				{
					OFFSET -0.438985 -32.635651 -3.012681
					CHANNELS 3 Zrotation Yrotation Xrotation
					JOINT RightToeBase
					{
						OFFSET -0.970169 -13.225354 11.864223
						CHANNELS 3 Zrotation Yrotation Xrotation
						End Site
						{
							OFFSET 0.000000 0.000000 0.000000
						}
					}
				}
			}
		}
	}
	JOINT Spine_virtual
	{
		OFFSET 0.000000 0.000000 0.000000
		CHANNELS 3 Zrotation Yrotation Xrotation
		JOINT Spine
		{
			OFFSET 0.000000 7.722015 1.166203
			CHANNELS 3 Zrotation Yrotation Xrotation
			JOINT Spine1
			{
				OFFSET 0.000000 12.024086 0.248766
				CHANNELS 3 Zrotation Yrotation Xrotation
				JOINT Spine2
				{
					OFFSET -0.000000 11.503036 -0.491240
					CHANNELS 3 Zrotation Yrotation Xrotation
					JOINT Neck_virtual
					{
						OFFSET 0.000000 0.000000 0.000000
						CHANNELS 3 Zrotation Yrotation Xrotation
						JOINT Neck
						{
							OFFSET 0.000000 18.430687 -3.123054
							CHANNELS 3 Zrotation Yrotation Xrotation
							JOINT Head
							{
								OFFSET -0.000000 9.051071 1.034021
								CHANNELS 3 Zrotation Yrotation Xrotation
								End Site
								{
									OFFSET 0.000000 0.000000 0.000000
								}
							}
						}
					}
					JOINT LeftShoulder_virtual
					{
						OFFSET 0.000000 0.000000 0.000000
						CHANNELS 3 Zrotation Yrotation Xrotation
						JOINT LeftShoulder
						{
							OFFSET 6.197824 13.665230 -4.064723
							CHANNELS 3 Zrotation Yrotation Xrotation
							JOINT LeftArm
							{
								OFFSET 7.778132 -0.187073 -1.709282
								CHANNELS 3 Zrotation Yrotation Xrotation
								JOINT LeftForeArm
								{
									OFFSET 21.954697 0.000000 -2.041093
									CHANNELS 3 Zrotation Yrotation Xrotation
									JOINT LeftHand
									{
										OFFSET 22.992908 0.000000 -0.870901
										CHANNELS 3 Zrotation Yrotation Xrotation
										End Site
										{
											OFFSET 0.000000 0.000000 0.000000
										}
									}
								}
							}
						}
					}
					JOINT RightShoulder_virtual
					{
						OFFSET 0.000000 0.000000 0.000000
						CHANNELS 3 Zrotation Yrotation Xrotation
						JOINT RightShoulder
						{
							OFFSET -6.197824 13.665230 -4.064723
							CHANNELS 3 Zrotation Yrotation Xrotation
							JOINT RightArm
							{
								OFFSET -7.778132 -0.187073 -1.709282
								CHANNELS 3 Zrotation Yrotation Xrotation
								JOINT RightForeArm
								{
									OFFSET -21.954697 0.000000 -2.041093
									CHANNELS 3 Zrotation Yrotation Xrotation
									JOINT RightHand
									{
										OFFSET -22.992908 0.000000 -0.870901
										CHANNELS 3 Zrotation Yrotation Xrotation
										End Site
										{
											OFFSET 0.000000 0.000000 0.000000
										}
									}
								}
							}
						}
					}
				}
			}
		}
	}
}
MOTION
Frames: 14
Frame Time: 0.033333
77.647377 82.287788 4.606990 179.966114 0.376791 -179.933834 -5.027347 2.630302 10.301537 7.231127 -8.715573 -24.893635 6.444012 7.498337 22.675195 -7.856739 -1.998672 -3.413568 0.000000 0.000000 0.000000 -0.847872 2.408792 10.604174 0.067935 -6.984564 -12.401386 -2.864481 -0.494511 19.304428 7.645284 12.454502 -9.991815 0.000000 0.000000 0.000000 3.032300 4.096764 0.933985 -5.818134 -0.389320 -1.208481 0.852503 -3.064464 4.426016 0.004701 0.002256 0.022342 0.752499 -2.050296 4.698973 -0.746737 2.390525 -15.525081 0.000000 0.000000 0.000000 1.927638 -1.160524 1.969931 3.846703 -1.200172 -5.738100 -15.088976 -0.578103 -31.029829 -5.278237 -18.697662 -4.421364 0.000000 0.000000 0.000000 -1.783527 0.038322 1.415893 7.026442 -6.665577 -7.584478 18.693647 -11.176636 -37.601247 0.312231 24.260869 -6.335717 0.000000 0.000000 0.000000 
77.640366 82.293289 4.590596 179.976974 0.296048 -179.925460 -5.014175 2.613103 10.267841 7.168414 -8.694543 -24.891781 6.418974 7.584989 22.613003 -7.781214 -1.923400 -3.353275 0.000000 0.000000 0.000000 -0.857844 2.478705 10.632189 0.086418 -6.956128 -12.343858 -2.897814 -0.525956 19.494359 7.850232 12.629477 -10.153152 0.000000 0.000000 0.000000 3.045303 4.081754 0.935413 -5.802621 -0.393147 -1.205709 0.855703 -3.072040 4.401882 -0.004413 -0.004536 0.021220 0.742673 -2.060251 4.704983 -0.747033 2.413337 -15.543038 0.000000 0.000000 0.000000 1.919268 -1.212533 1.965248 3.846748 -1.223861 -5.640018 -15.079948 -0.638000 -31.115890 -5.216452 -18.750039 -4.466459 0.000000 0.000000 0.000000 -1.824054 0.056708 1.399109 7.121115 -6.657375 -7.535959 18.564473 -11.146617 -37.567287 0.266377 24.363064 -6.351988 0.000000 0.000000 0.000000 
77.632454 82.293274 4.566466 179.885039 0.331298 -179.858074 -5.056342 2.610232 10.260012 7.136360 -8.730224 -24.912890 6.399634 7.587290 22.625340 -7.752614 -1.892130 -3.345395 0.000000 0.000000 0.000000 -0.924710 2.512544 10.595043 0.033170 -6.979221 -12.365292 -2.857364 -0.435277 19.524615 7.784181 12.629232 -10.188312 0.000000 0.000000 0.000000 2.993167 4.084952 0.899497 -5.837365 -0.400423 -1.242165 0.815518 -3.096548 4.377034 -0.016046 -0.030033 -0.044617 0.787083 -1.965741 4.839112 -0.786490 2.432471 -15.506647 0.000000 0.000000 0.000000 1.958892 -1.158449 2.101969 3.821821 -1.165366 -5.655390 -15.120301 -0.748314 -31.313409 -5.248366 -18.790311 -4.474103 0.000000 0.000000 0.000000 -1.728542 0.037277 1.550399 7.060389 -6.624106 -7.715618 18.568714 -11.081305 -37.664675 0.382124 24.445278 -6.287502 0.000000 0.000000 0.000000 
77.619080 82.287552 4.542995 179.981714 0.177978 -179.942713 -5.005207 2.568454 10.270530 7.137120 -8.665949 -24.860567 6.505003 7.783830 22.687570 -7.909024 -2.067074 -3.383487 0.000000 0.000000 0.000000 -0.845563 2.422505 10.654166 0.074390 -6.965512 -12.310636 -2.904594 -0.558521 19.532758 7.841516 12.621146 -10.188284 0.000000 0.000000 0.000000 3.057490 4.052597 0.907122 -5.775961 -0.412126 -1.190894 0.864972 -3.107410 4.439969 -0.043567 -0.033599 0.023384 0.748692 -2.095087 4.734516 -0.755675 2.387323 -15.441070 0.000000 0.000000 0.000000 1.913323 -1.184124 2.020177 3.818139 -1.155413 -5.681627 -15.138506 -0.848512 -31.247412 -5.237842 -18.856298 -4.459764 0.000000 0.000000 0.000000 -1.787108 0.019337 1.411130 7.134331 -6.698717 -7.757845 18.488187 -10.994965 -37.453803 0.389203 24.560534 -6.223138 0.000000 0.000000 0.000000 
77.610039 82.281464 4.521934 -179.910775 0.250806 -179.897457 -4.955551 2.641847 10.257663 7.187427 -8.501905 -24.886209 6.472259 7.651476 22.730721 -7.978429 -2.139835 -3.443512 0.000000 0.000000 0.000000 -0.760050 2.520764 10.624063 0.100987 -7.031148 -12.342301 -3.033480 -0.727989 19.582036 8.041380 12.608488 -10.172940 0.000000 0.000000 0.000000 3.138478 4.047401 0.862772 -5.719202 -0.415285 -1.218200 0.854429 -3.101044 4.431503 0.003769 -0.008353 0.003311 0.718002 -2.143545 4.814898 -0.767358 2.337442 -15.362878 0.000000 0.000000 0.000000 1.889870 -1.179880 2.067192 3.780102 -1.099826 -5.720062 -15.166094 -0.863911 -31.308040 -5.258597 -18.928613 -4.525011 0.000000 0.000000 0.000000 -1.822141 0.016459 1.489534 7.215069 -6.636378 -7.571936 18.467549 -10.900667 -37.500071 0.284493 24.641772 -6.351927 0.000000 0.000000 0.000000 
77.599304 82.275024 4.509336 -179.911841 0.291713 -179.925160 -4.956535 2.688544 10.271679 7.174761 -8.484247 -24.862689 6.465017 7.693384 22.746640 -7.996726 -2.159901 -3.475640 0.000000 0.000000 0.000000 -0.761087 2.553355 10.641311 0.080363 -7.020740 -12.339890 -3.044517 -0.734303 19.600100 8.067264 12.605504 -10.182003 0.000000 0.000000 0.000000 3.148270 4.066844 0.874148 -5.708322 -0.416792 -1.217470 0.848324 -3.119339 4.483542 -0.002707 -0.013849 0.064904 0.734068 -2.107061 4.816062 -0.751334 2.370219 -15.241487 0.000000 0.000000 0.000000 1.882718 -1.109349 2.023510 3.771114 -1.026514 -5.704248 -15.221734 -0.890969 -31.337482 -5.318156 -18.937610 -4.504110 0.000000 0.000000 0.000000 -1.806638 0.019272 1.474300 7.285847 -6.638832 -7.586990 18.427471 -10.857745 -37.459025 0.280628 24.658030 -6.340826 0.000000 0.000000 0.000000 
77.588921 82.276588 4.503682 -179.999226 0.342122 -179.902156 -4.996014 2.726341 10.258639 7.121065 -8.541381 -24.881590 6.461320 7.765175 22.735948 -7.947262 -2.108675 -3.467555 0.000000 0.000000 0.000000 -0.810829 2.621351 10.630583 0.053608 -7.027559 -12.364621 -3.017261 -0.701944 19.655819 7.986182 12.665813 -10.212366 0.000000 0.000000 0.000000 3.104372 4.123083 0.841179 -5.733191 -0.392727 -1.219513 0.838931 -3.120034 4.487815 -0.073915 -0.018391 0.027300 0.797194 -2.031329 4.866096 -0.760669 2.365192 -15.186200 0.000000 0.000000 0.000000 1.971087 -1.143277 2.070090 3.783928 -0.987561 -5.758957 -15.236716 -0.892843 -31.219586 -5.284059 -18.953889 -4.593236 0.000000 0.000000 0.000000 -1.733395 0.052852 1.473760 7.326254 -6.640175 -7.760898 18.379841 -10.991730 -37.320512 0.345933 24.671820 -6.208667 0.000000 0.000000 0.000000 
77.585655 82.273277 4.505943 179.997109 0.390383 -179.972124 -4.972133 2.799808 10.267718 7.135670 -8.543181 -24.848177 6.476179 7.743897 22.727314 -7.927851 -2.089162 -3.475537 0.000000 0.000000 0.000000 -0.847659 2.622323 10.668380 0.050195 -6.948340 -12.338990 -2.990374 -0.620228 19.660730 7.940734 12.651263 -10.210575 0.000000 0.000000 0.000000 3.116435 4.192475 0.887484 -5.717994 -0.337008 -1.188097 0.826728 -3.072533 4.517978 -0.030526 0.015511 0.015328 0.783637 -2.051087 4.867407 -0.765338 2.374250 -15.119472 0.000000 0.000000 0.000000 1.923502 -1.255598 2.121893 3.768585 -1.067595 -5.763214 -15.186009 -0.943352 -31.353246 -5.367699 -18.937704 -4.435306 0.000000 0.000000 0.000000 -1.734419 -0.077481 1.485244 7.382420 -6.736390 -7.853001 18.381740 -10.937797 -37.324573 0.405906 24.601088 -6.157604 0.000000 0.000000 0.000000 
77.584419 82.270332 4.510993 179.999855 0.350668 -179.932154 -5.001105 2.742435 10.255983 7.139283 -8.587517 -24.885917 6.481866 7.772275 22.728416 -7.946483 -2.107274 -3.498773 0.000000 0.000000 0.000000 -0.833251 2.602938 10.661437 0.061979 -6.981894 -12.361782 -3.033192 -0.718666 19.639966 8.027957 12.651629 -10.187646 0.000000 0.000000 0.000000 3.111304 4.154213 0.866687 -5.722872 -0.396723 -1.200311 0.816056 -3.147251 4.530836 0.045243 -0.034679 0.024364 0.718657 -2.114888 4.879543 -0.790069 2.377183 -15.078744 0.000000 0.000000 0.000000 1.896562 -1.167123 2.094894 3.741633 -0.986725 -5.755984 -15.076709 -0.912235 -31.159811 -5.339156 -18.970835 -4.468410 0.000000 0.000000 0.000000 -1.777937 -0.006272 1.568389 7.422665 -6.658524 -7.744171 18.436707 -10.876934 -37.447653 0.355218 24.565395 -6.260518 0.000000 0.000000 0.000000 
77.581436 82.273071 4.515907 179.976673 0.341429 -179.934121 -5.024720 2.740577 10.255480 7.125112 -8.605000 -24.850564 6.492389 7.738227 22.742467 -7.928071 -2.090374 -3.467566 0.000000 0.000000 0.000000 -0.844628 2.592732 10.664995 0.056488 -6.964356 -12.359565 -3.014933 -0.699977 19.638375 8.010449 12.649650 -10.195755 0.000000 0.000000 0.000000 3.110076 4.109961 0.866591 -5.709049 -0.411942 -1.201991 0.817068 -3.172629 4.527719 0.039268 -0.060031 0.021202 0.731591 -2.163253 4.876515 -0.790294 2.376088 -15.045413 0.000000 0.000000 0.000000 1.900378 -1.133840 2.073690 3.784458 -0.976189 -5.737970 -15.022368 -0.884566 -31.262633 -5.397852 -18.949170 -4.467402 0.000000 0.000000 0.000000 -1.770019 0.035962 1.570472 7.400993 -6.607057 -7.756277 18.539503 -10.918000 -37.554781 0.370312 24.515779 -6.231968 0.000000 0.000000 0.000000 
77.582642 82.273636 4.513987 -179.899000 0.374273 -179.853989 -4.960526 2.724490 10.220287 7.181813 -8.534544 -24.921701 6.506651 7.663013 22.751526 -7.949870 -2.117874 -3.512638 0.000000 0.000000 0.000000 -0.772281 2.609730 10.627684 0.115751 -6.914433 -12.388739 -3.034014 -0.749358 19.571818 8.079467 12.575450 -10.150131 0.000000 0.000000 0.000000 3.165432 4.123350 0.820849 -5.638539 -0.366439 -1.229103 0.876349 -3.141067 4.567465 -0.011572 -0.019036 0.085055 0.718977 -2.140502 4.883487 -0.774604 2.357443 -14.990033 0.000000 0.000000 0.000000 1.872665 -1.170973 2.059840 3.765784 -1.006632 -5.692313 -14.889430 -0.857381 -31.129014 -5.412362 -18.935496 -4.473330 0.000000 0.000000 0.000000 -1.804667 0.002396 1.513895 7.455088 -6.650353 -7.675176 18.655910 -11.028895 -37.460698 0.272537 24.467336 -6.341975 0.000000 0.000000 0.000000 
77.585197 82.272522 4.513124 -179.895107 0.499381 -179.902566 -4.962934 2.762614 10.257663 7.172214 -8.518652 -24.883525 6.515893 7.692872 22.758272 -7.935187 -2.110308 -3.529864 0.000000 0.000000 0.000000 -0.751372 2.670456 10.623184 0.115709 -6.873786 -12.367919 -3.010417 -0.657286 19.621788 8.004271 12.585908 -10.210638 0.000000 0.000000 0.000000 3.172643 4.167148 0.869387 -5.611360 -0.324972 -1.182355 0.874511 -3.125835 4.535158 0.003075 0.004429 0.019686 0.731032 -2.140454 4.947125 -0.775504 2.325660 -14.965677 0.000000 0.000000 0.000000 1.879324 -1.182372 2.134632 3.804325 -1.043482 -5.762544 -14.801677 -0.778134 -31.079205 -5.374752 -18.962634 -4.548779 0.000000 0.000000 0.000000 -1.793875 -0.050861 1.626398 7.424154 -6.646380 -7.742692 18.728112 -10.981575 -37.655646 0.353031 24.449051 -6.325223 0.000000 0.000000 0.000000 
77.590775 82.273125 4.502755 -179.996494 0.409893 -179.838225 -5.017976 2.681859 10.210733 7.145843 -8.597941 -24.887246 6.529736 7.707915 22.767387 -7.874426 -2.057141 -3.514663 0.000000 0.000000 0.000000 -0.836592 2.598992 10.614129 0.082623 -6.860100 -12.367720 -3.034965 -0.712657 19.559210 7.997172 12.611540 -10.192445 0.000000 0.000000 0.000000 3.115138 4.133661 0.818758 -5.631096 -0.354131 -1.197830 0.836644 -3.168251 4.512259 0.003001 -0.034364 -0.011158 0.766323 -2.107357 4.962924 -0.774853 2.420598 -15.010333 0.000000 0.000000 0.000000 1.906658 -1.202732 2.158986 3.838757 -1.055501 -5.742368 -14.716782 -0.698148 -31.110832 -5.423133 -19.021278 -4.491742 0.000000 0.000000 0.000000 -1.766839 -0.024351 1.651328 7.466041 -6.572612 -7.774540 18.868109 -11.074724 -37.640486 0.355376 24.453547 -6.354105 0.000000 0.000000 0.000000 
77.597160 82.271393 4.495948 -179.894328 0.469246 -179.946019 -4.976366 2.733770 10.238473 7.189071 -8.592893 -24.839416 6.527935 7.684529 22.798622 -7.919253 -2.111740 -3.550420 0.000000 0.000000 0.000000 -0.758561 2.590691 10.651614 0.117816 -6.842592 -12.315174 -3.041734 -0.651110 19.572175 8.024663 12.573321 -10.218124 0.000000 0.000000 0.000000 3.169465 4.147499 0.893081 -5.561520 -0.315166 -1.123768 0.853979 -3.145708 4.541407 -0.048751 -0.003976 0.016466 0.754725 -2.124732 4.906273 -0.781807 2.309685 -15.007099 0.000000 0.000000 0.000000 1.933686 -1.260898 2.109544 3.951310 -1.106163 -5.823062 -14.607314 -0.561763 -31.189150 -5.477115 -19.042301 -4.428442 0.000000 0.000000 0.000000 -1.770786 -0.032333 1.557463 7.479948 -6.558945 -7.688093 19.023702 -11.106836 -37.615563 0.295768 24.487541 -6.428880 0.000000 0.000000 0.000000 
